<svg width="166" height="32" viewBox="0 0 166 32" fill="none" xmlns="http://www.w3.org/2000/svg">
<path d="M25.1719 23.6641C25.1719 23.7891 25.125 23.875 25.0312 23.9219C24.9531 23.9688 24.9375 24.0781 24.9844 24.25C24.8594 24.2656 24.75 24.3281 24.6562 24.4375C24.5625 24.5469 24.4531 24.6016 24.3281 24.6016C24.25 24.6016 24.1875 24.5625 24.1406 24.4844C24.1094 24.5938 24.0469 24.6719 23.9531 24.7188C23.875 24.7656 23.7891 24.8047 23.6953 24.8359C23.6016 24.8672 23.5078 24.9062 23.4141 24.9531C23.3203 25 23.2578 25.0703 23.2266 25.1641H23.1094C22.9219 25.1641 22.7734 25.2422 22.6641 25.3984C22.5703 25.5547 22.4531 25.6328 22.3125 25.6328C22.2656 25.6328 22.2344 25.625 22.2188 25.6094C22.1406 25.625 22.1094 25.6719 22.125 25.75C22.1406 25.8438 22.1172 25.9062 22.0547 25.9375H21.9375C21.5312 25.9375 21.1172 26.0234 20.6953 26.1953C20.2734 26.3672 19.8438 26.5625 19.4062 26.7812C18.9844 27 18.5469 27.2031 18.0938 27.3906C17.6562 27.5938 17.2109 27.7266 16.7578 27.7891C16.6641 27.8828 16.5469 27.9531 16.4062 28C16.2812 28.0625 16.1406 28.1094 15.9844 28.1406C15.8281 28.1719 15.6719 28.2031 15.5156 28.2344C15.375 28.2812 15.25 28.3516 15.1406 28.4453C14.75 28.4766 14.3594 28.5469 13.9688 28.6562C13.5781 28.7656 13.1875 28.8672 12.7969 28.9609C12.4219 29.0703 12.0312 29.1562 11.625 29.2188C11.2344 29.2969 10.8359 29.3203 10.4297 29.2891C10.3047 29.3828 10.1641 29.4531 10.0078 29.5C9.86719 29.5625 9.73438 29.6406 9.60938 29.7344C8.96875 29.6406 8.32812 29.5703 7.6875 29.5234C7.0625 29.4766 6.44531 29.3672 5.83594 29.1953C5.83594 29.1484 5.82031 29.1172 5.78906 29.1016C5.75781 29.0859 5.71875 29.0703 5.67188 29.0547C5.64062 29.0547 5.60938 29.0391 5.57812 29.0078C5.54688 28.9922 5.54688 28.9531 5.57812 28.8906C5.4375 28.9375 5.3125 28.9609 5.20312 28.9609C5.04688 28.9609 4.89062 28.9219 4.73438 28.8438C4.59375 28.7656 4.4375 28.6797 4.26562 28.5859C4.10938 28.4922 3.94531 28.3984 3.77344 28.3047C3.60156 28.2266 3.41406 28.1875 3.21094 28.1875C3.08594 28.0625 2.96875 27.9375 2.85938 27.8125C2.76562 27.6875 2.69531 27.5312 2.64844 27.3438C2.58594 27.3281 2.51562 27.3281 2.4375 27.3438C2.375 27.3594 2.32031 27.3672 2.27344 27.3672C2.17969 27.3672 2.13281 27.3359 2.13281 27.2734C1.80469 27.0391 1.57031 26.7891 1.42969 26.5234C1.28906 26.2578 1.13281 25.9531 0.960938 25.6094C0.914062 25.5 0.851562 25.4062 0.773438 25.3281C0.710938 25.2656 0.664062 25.1875 0.632812 25.0938C0.570312 24.9375 0.53125 24.7734 0.515625 24.6016C0.5 24.4297 0.484375 24.2656 0.46875 24.1094C0.46875 23.9375 0.445312 23.7734 0.398438 23.6172C0.367188 23.4453 0.296875 23.2891 0.1875 23.1484C0.21875 22.5547 0.28125 21.9609 0.375 21.3672C0.484375 20.7734 0.617188 20.1797 0.773438 19.5859C0.835938 19.3203 0.90625 19.0625 0.984375 18.8125C1.0625 18.5625 1.13281 18.3047 1.19531 18.0391C1.21094 17.9453 1.23438 17.8828 1.26562 17.8516C1.3125 17.8047 1.35156 17.7734 1.38281 17.7578L1.47656 17.6875C1.50781 17.6562 1.53125 17.6094 1.54688 17.5469L1.73438 16.75C1.85938 16.2344 2.02344 15.7344 2.22656 15.25C2.42969 14.7656 2.70312 14.3203 3.04688 13.9141C3.07812 13.5234 3.16406 13.1562 3.30469 12.8125C3.46094 12.4531 3.63281 12.1094 3.82031 11.7812C4.00781 11.4375 4.19531 11.1016 4.38281 10.7734C4.57031 10.4453 4.71875 10.0938 4.82812 9.71875L4.80469 9.67188C4.80469 9.60938 4.83594 9.57812 4.89844 9.57812C4.97656 9.5625 5.03125 9.55469 5.0625 9.55469C5.07812 9.30469 5.13281 9.09375 5.22656 8.92188C5.33594 8.73438 5.44531 8.5625 5.55469 8.40625C5.67969 8.25 5.78906 8.08594 5.88281 7.91406C5.99219 7.72656 6.05469 7.50781 6.07031 7.25781C6.36719 7.08594 6.61719 6.875 6.82031 6.625C7.03906 6.35937 7.24219 6.09375 7.42969 5.82812C7.63281 5.54688 7.84375 5.28125 8.0625 5.03125C8.28125 4.76562 8.54688 4.55469 8.85938 4.39844C8.9375 4.30469 8.96094 4.17188 8.92969 4C9.41406 3.64062 9.91406 3.32031 10.4297 3.03906C10.9453 2.75781 11.4297 2.42969 11.8828 2.05469H12.7266C12.9297 1.89844 13.1562 1.82031 13.4062 1.82031C13.5938 1.82031 13.7734 1.85937 13.9453 1.9375C14.1328 2.01563 14.3047 2.10938 14.4609 2.21875C14.6328 2.3125 14.8047 2.41406 14.9766 2.52344C15.1484 2.61719 15.3203 2.6875 15.4922 2.73438C15.6641 2.96875 15.7812 3.24219 15.8438 3.55469C15.9219 3.85156 16 4.13281 16.0781 4.39844C15.9375 4.82031 15.8516 5.25781 15.8203 5.71094C15.7891 6.14844 15.7344 6.58594 15.6562 7.02344C15.5469 7.14844 15.4531 7.28906 15.375 7.44531C15.2969 7.58594 15.2109 7.73438 15.1172 7.89062C15.0391 8.03125 14.9531 8.17188 14.8594 8.3125C14.7656 8.4375 14.6406 8.53906 14.4844 8.61719C14.3594 9.07031 14.1641 9.42969 13.8984 9.69531C13.6328 9.96094 13.375 10.2734 13.125 10.6328C12.8906 10.7891 12.6406 10.8672 12.375 10.8672C12.1562 10.8672 11.9609 10.8203 11.7891 10.7266C11.6172 10.6172 11.4609 10.4844 11.3203 10.3281C11.1797 10.1562 11.0625 9.97656 10.9688 9.78906C10.8906 9.58594 10.8281 9.39062 10.7812 9.20312C10.8906 8.875 11.0625 8.59375 11.2969 8.35938C11.5469 8.125 11.7969 7.89062 12.0469 7.65625C12.2969 7.42188 12.5156 7.17188 12.7031 6.90625C12.8906 6.64062 12.9844 6.32031 12.9844 5.94531C12.9844 5.91406 12.9766 5.88281 12.9609 5.85156C12.9609 5.82031 12.9609 5.78906 12.9609 5.75781C12.9609 5.69531 12.9844 5.64062 13.0312 5.59375C13.0781 5.54688 13.125 5.50781 13.1719 5.47656L13.3125 5.35938C13.3594 5.3125 13.3828 5.25781 13.3828 5.19531C13.3828 5.13281 13.3516 5.07031 13.2891 5.00781C12.6953 5.05469 12.2422 5.15625 11.9297 5.3125C11.6328 5.46875 11.3984 5.64062 11.2266 5.82812C11.0547 6.01562 10.8984 6.20312 10.7578 6.39062C10.6328 6.5625 10.4453 6.6875 10.1953 6.76562C10.1484 6.89063 10.0781 7 9.98438 7.09375C9.90625 7.17188 9.82031 7.25781 9.72656 7.35156C9.63281 7.42969 9.54688 7.52344 9.46875 7.63281C9.40625 7.74219 9.36719 7.875 9.35156 8.03125H8.92969C8.86719 8.17188 8.77344 8.3125 8.64844 8.45312C8.53906 8.57812 8.42188 8.70312 8.29688 8.82812C8.1875 8.95312 8.08594 9.09375 7.99219 9.25C7.91406 9.39062 7.89062 9.54688 7.92188 9.71875C7.75 9.78125 7.61719 9.88281 7.52344 10.0234C7.44531 10.1641 7.32812 10.2812 7.17188 10.375V10.5156C7.17188 10.6406 7.14844 10.7578 7.10156 10.8672C7.05469 10.9766 7.04688 11.0938 7.07812 11.2188C6.89062 11.3906 6.75 11.6094 6.65625 11.875C6.57812 12.125 6.49219 12.3594 6.39844 12.5781C6.17969 12.6875 6.03125 12.8359 5.95312 13.0234C5.875 13.2109 5.83594 13.4297 5.83594 13.6797C5.60156 13.9141 5.39062 14.1875 5.20312 14.5C5.01562 14.8125 4.84375 15.1328 4.6875 15.4609C4.54688 15.7891 4.41406 16.125 4.28906 16.4688C4.16406 16.8125 4.03125 17.1328 3.89062 17.4297V18.1094C3.67188 18.3594 3.51562 18.6562 3.42188 19C3.34375 19.3281 3.21875 19.625 3.04688 19.8906C3.01562 20.0625 3 20.2344 3 20.4062C3.01562 20.5781 3.02344 20.75 3.02344 20.9219C3.02344 21.1094 3.00781 21.3047 2.97656 21.5078C2.94531 21.7109 2.89062 21.8984 2.8125 22.0703C2.875 22.3047 2.92188 22.5859 2.95312 22.9141C2.98438 23.2266 3.03906 23.5469 3.11719 23.875C3.19531 24.1875 3.30469 24.4766 3.44531 24.7422C3.58594 24.9922 3.78906 25.1641 4.05469 25.2578C4.11719 25.6016 4.26562 25.8594 4.5 26.0312C4.75 26.2188 5.03125 26.3672 5.34375 26.4766C5.65625 26.5859 5.97656 26.6797 6.30469 26.7578C6.63281 26.8516 6.92188 26.9688 7.17188 27.1094C7.26562 27.0625 7.375 27.0391 7.5 27.0391C7.625 27.0391 7.73438 27.0547 7.82812 27.0859C7.9375 27.1172 8.05469 27.1484 8.17969 27.1797C8.39844 27.1484 8.66406 27.1328 8.97656 27.1328C9.30469 27.1328 9.63281 27.1172 9.96094 27.0859C10.2891 27.0703 10.5938 27.0312 10.875 26.9688C11.1562 26.9062 11.3828 26.7891 11.5547 26.6172C11.6641 26.6172 11.7344 26.6484 11.7656 26.7109C11.8125 26.7734 11.8906 26.8047 12 26.8047C12.1094 26.8047 12.2734 26.7734 12.4922 26.7109C12.7109 26.6641 12.9375 26.6016 13.1719 26.5234C13.4062 26.4609 13.625 26.3906 13.8281 26.3125C14.0469 26.2344 14.2031 26.1641 14.2969 26.1016C14.3438 26.1172 14.3906 26.125 14.4375 26.125H14.6016C14.8203 26.125 15.0234 26.0859 15.2109 26.0078C15.3984 25.9297 15.6016 25.9062 15.8203 25.9375C16.5391 25.5781 17.2656 25.2656 18 25C18.75 24.75 19.5078 24.5234 20.2734 24.3203C20.3672 24.1797 20.4766 24.0781 20.6016 24.0156C20.7422 23.9531 20.8906 23.9062 21.0469 23.875C21.2031 23.8281 21.3594 23.7969 21.5156 23.7812C21.6719 23.75 21.8203 23.7109 21.9609 23.6641C22.0547 23.6172 22.1328 23.5625 22.1953 23.5C22.2734 23.4219 22.3672 23.3594 22.4766 23.3125C22.5859 23.2656 22.7031 23.2344 22.8281 23.2188C22.9688 23.2031 23.1016 23.1875 23.2266 23.1719C23.3672 23.1406 23.4922 23.1016 23.6016 23.0547C23.7266 23.0078 23.8281 22.9297 23.9062 22.8203C24.125 22.9141 24.3438 23.0156 24.5625 23.125C24.7969 23.2344 24.9922 23.3906 25.1484 23.5938L25.1719 23.6641ZM26.6953 21.7891C26.6172 21.9141 26.5234 22.0312 26.4141 22.1406C26.3047 22.2344 26.2031 22.3359 26.1094 22.4453C26 22.4922 25.875 22.5156 25.7344 22.5156C25.6094 22.5156 25.4844 22.5156 25.3594 22.5156C25.25 22.5 25.1406 22.5 25.0312 22.5156C24.9375 22.5156 24.8594 22.5469 24.7969 22.6094C24.6719 22.5781 24.5781 22.5234 24.5156 22.4453C24.4531 22.3516 24.3438 22.2969 24.1875 22.2812C24.125 22.2656 24.0625 22.2656 24 22.2812C23.7656 22.0156 23.5469 21.7344 23.3438 21.4375C23.1562 21.1406 22.9766 20.8594 22.8047 20.5938C22.7891 20.0156 22.7422 19.4297 22.6641 18.8359C22.6484 18.6953 22.625 18.5547 22.5938 18.4141C22.5625 18.2734 22.5391 18.1406 22.5234 18.0156C22.5234 17.8594 22.5312 17.7109 22.5469 17.5703C22.5781 17.4141 22.6016 17.2734 22.6172 17.1484C22.6797 16.6953 22.75 16.25 22.8281 15.8125C22.9062 15.375 22.9766 14.9297 23.0391 14.4766C23.1016 14.0703 23.1328 13.6484 23.1328 13.2109C23.1328 12.7578 23.0625 12.3359 22.9219 11.9453L22.8984 11.8281C22.9297 11.7031 22.9609 11.6016 22.9922 11.5234C23.0391 11.4297 23.0703 11.3281 23.0859 11.2188C23.1172 11.0469 23.0781 10.9219 22.9688 10.8438C23.0156 10.7188 23.0938 10.6406 23.2031 10.6094C23.3125 10.5625 23.375 10.4688 23.3906 10.3281C23.4062 10.2656 23.4062 10.2031 23.3906 10.1406C23.5156 10.0938 23.6406 10.0547 23.7656 10.0234C23.9062 9.97656 24.0391 9.96875 24.1641 10C24.3672 10.0312 24.5469 10.1016 24.7031 10.2109C24.8594 10.3047 25.0078 10.4141 25.1484 10.5391C25.3984 11.2891 25.5 12.0859 25.4531 12.9297C25.4062 13.7578 25.3281 14.5938 25.2188 15.4375C25.1094 16.2812 25.0391 17.1094 25.0078 17.9219C24.9766 18.7188 25.1016 19.4609 25.3828 20.1484L25.4297 20.1719C25.5078 20.1875 25.5703 20.1641 25.6172 20.1016C25.6641 20.0234 25.7266 19.9922 25.8047 20.0078C25.8672 20.0391 25.9062 20.0547 25.9219 20.0547C25.9844 20.3672 26.0859 20.6641 26.2266 20.9453C26.3672 21.2266 26.5234 21.5078 26.6953 21.7891ZM49.1016 9.92969C49.0391 10.1328 48.9375 10.3203 48.7969 10.4922L48.3984 10.9844C48.2734 11.1406 48.1641 11.3125 48.0703 11.5C47.9922 11.6719 47.9688 11.875 48 12.1094C47.9688 12.1094 47.9297 12.1094 47.8828 12.1094C47.8359 12.0938 47.7969 12.0859 47.7656 12.0859C47.5156 12.0859 47.3203 12.1484 47.1797 12.2734C47.0547 12.3828 46.8828 12.4766 46.6641 12.5547C46.6328 12.4609 46.5938 12.375 46.5469 12.2969C46.5 12.2031 46.4297 12.1406 46.3359 12.1094C45.9609 12.1875 45.5859 12.25 45.2109 12.2969C44.8359 12.3281 44.4609 12.375 44.0859 12.4375C43.9141 12.4688 43.7422 12.5156 43.5703 12.5781C43.3984 12.625 43.2188 12.6719 43.0312 12.7188C42.9375 12.75 42.8359 12.7656 42.7266 12.7656C42.6172 12.75 42.5078 12.75 42.3984 12.7656C42.0234 12.7812 41.6172 12.8125 41.1797 12.8594C40.7422 12.8906 40.3516 13.0078 40.0078 13.2109C39.8516 13.1797 39.6875 13.1562 39.5156 13.1406C39.3438 13.125 39.1719 13.1172 39 13.1172C38.625 13.1172 38.2109 13.1562 37.7578 13.2344C37.3203 13.2969 36.9297 13.4297 36.5859 13.6328C36.5078 13.6016 36.4219 13.5781 36.3281 13.5625C36.25 13.5469 36.1562 13.5391 36.0469 13.5391C36.0156 13.5391 35.9922 13.5469 35.9766 13.5625C35.9609 13.5625 35.9375 13.5625 35.9062 13.5625C35.8906 13.7031 35.9062 13.8438 35.9531 13.9844C36.0156 14.1094 36.1172 14.2109 36.2578 14.2891C36.1953 14.4609 36.1641 14.6484 36.1641 14.8516C36.1641 15.1172 36.1797 15.3828 36.2109 15.6484C36.2578 15.9141 36.2812 16.1797 36.2812 16.4453C36.2812 16.7422 36.2422 16.9766 36.1641 17.1484C36.3203 17.6172 36.3984 18.1172 36.3984 18.6484C36.3984 18.8359 36.3828 19.0234 36.3516 19.2109C36.3359 19.3828 36.3281 19.5703 36.3281 19.7734C36.3281 19.9453 36.3906 20.0859 36.5156 20.1953C36.6406 20.2891 36.7031 20.4219 36.7031 20.5938C36.7031 20.6562 36.6875 20.7188 36.6562 20.7812C36.875 20.7344 37.0859 20.6719 37.2891 20.5938C37.4922 20.5 37.7031 20.4531 37.9219 20.4531C38.0469 20.4531 38.1641 20.4766 38.2734 20.5234C38.3984 20.5703 38.5078 20.6328 38.6016 20.7109C38.5859 20.7891 38.5703 20.875 38.5547 20.9688C38.5547 21.0625 38.5547 21.1562 38.5547 21.25C38.5547 21.4219 38.5547 21.5859 38.5547 21.7422C38.5703 21.8828 38.5859 22.0391 38.6016 22.2109C38.4766 22.4297 38.3281 22.625 38.1562 22.7969C38 22.9688 37.8906 23.1875 37.8281 23.4531C37.5938 23.4531 37.3828 23.5078 37.1953 23.6172C37.0234 23.7109 36.8594 23.8203 36.7031 23.9453C36.5469 24.0547 36.3906 24.1641 36.2344 24.2734C36.0781 24.3672 35.9062 24.4141 35.7188 24.4141C35.4844 24.4141 35.3203 24.3828 35.2266 24.3203C35.1328 24.2422 35.0625 24.1641 35.0156 24.0859C34.9688 24.0078 34.9219 23.9375 34.875 23.875C34.8438 23.8125 34.7656 23.7891 34.6406 23.8047C34.6094 23.6016 34.5469 23.4141 34.4531 23.2422C34.3594 23.0547 34.2578 22.875 34.1484 22.7031C34.0547 22.5312 33.9531 22.3594 33.8438 22.1875C33.75 22 33.6797 21.8125 33.6328 21.625C33.5391 21.2188 33.5 20.7969 33.5156 20.3594C33.5312 19.9219 33.4609 19.5 33.3047 19.0938C33.3359 18.875 33.3594 18.6562 33.375 18.4375C33.3906 18.2031 33.3984 17.9766 33.3984 17.7578C33.3984 17.3203 33.3828 16.8906 33.3516 16.4688C33.3359 16.0312 33.3203 15.5859 33.3047 15.1328C33.1953 14.9922 33.125 14.8359 33.0938 14.6641C33.0781 14.4766 33.0625 14.2969 33.0469 14.125C33 14.0781 32.9453 14.0312 32.8828 13.9844C32.8359 13.9375 32.8047 13.875 32.7891 13.7969C32.6641 13.7656 32.5703 13.75 32.5078 13.75C32.2891 13.75 32.1016 13.8047 31.9453 13.9141C31.8047 14.0078 31.6719 14.0547 31.5469 14.0547C31.4219 14.0547 31.3047 14.0391 31.1953 14.0078C31.0859 13.9766 30.9766 13.9609 30.8672 13.9609C30.7734 13.9609 30.7188 13.9844 30.7031 14.0312C30.7031 14.0625 30.6719 14.0938 30.6094 14.125C30.5625 14.1562 30.4531 14.1875 30.2812 14.2188C30.1094 14.25 29.9141 14.2812 29.6953 14.3125C29.4922 14.3281 29.2891 14.3438 29.0859 14.3594C28.8984 14.375 28.7734 14.3828 28.7109 14.3828C28.4609 14.3828 28.2734 14.3359 28.1484 14.2422C28.0078 14.1328 27.8438 14.0156 27.6562 13.8906C27.6875 13.7969 27.7031 13.7344 27.7031 13.7031C27.7031 13.5469 27.6562 13.4219 27.5625 13.3281C27.4688 13.2188 27.4219 13.125 27.4219 13.0469C27.4219 12.875 27.4922 12.7422 27.6328 12.6484C27.7578 12.5547 27.8281 12.4062 27.8438 12.2031C28.2031 12.0469 28.5703 11.9297 28.9453 11.8516C29.3203 11.7734 29.7031 11.7109 30.0938 11.6641C30.4844 11.6172 30.8672 11.5625 31.2422 11.5C31.6328 11.4375 32.0156 11.3359 32.3906 11.1953C32.5 11.2109 32.6016 11.2266 32.6953 11.2422C32.8047 11.2422 32.9141 11.2422 33.0234 11.2422C33.4922 11.2422 33.9531 11.1953 34.4062 11.1016C34.875 10.9922 35.3516 10.9375 35.8359 10.9375C35.9609 10.9375 36.0859 10.9453 36.2109 10.9609C36.3359 10.9766 36.4609 11 36.5859 11.0312C37.2109 10.9375 37.8281 10.8359 38.4375 10.7266C39.0625 10.6172 39.7031 10.5234 40.3594 10.4453C40.6719 10.4141 40.9766 10.3906 41.2734 10.375C41.5859 10.3438 41.8984 10.3047 42.2109 10.2578C42.3203 10.2422 42.3984 10.2188 42.4453 10.1875C42.5078 10.1406 42.5391 10.0547 42.5391 9.92969C42.6797 9.99219 42.8359 10.0234 43.0078 10.0234C43.2734 10.0234 43.5312 9.97656 43.7812 9.88281C44.0312 9.78906 44.2891 9.74219 44.5547 9.74219C44.6172 9.74219 44.6719 9.75 44.7188 9.76562C44.7656 9.76562 44.8125 9.76562 44.8594 9.76562C44.9688 9.76562 45.0234 9.71875 45.0234 9.625C45.0391 9.51562 45.1172 9.44531 45.2578 9.41406C45.3672 9.38281 45.5234 9.35938 45.7266 9.34375C45.9297 9.32812 46.1406 9.3125 46.3594 9.29688C46.5938 9.26562 46.8047 9.23438 46.9922 9.20312C47.1953 9.15625 47.3438 9.09375 47.4375 9.01562L47.6016 8.75781C47.8828 8.77344 48.0859 8.89844 48.2109 9.13281C48.3516 9.35156 48.4297 9.59375 48.4453 9.85938C48.5078 9.92188 48.5938 9.95312 48.7031 9.95312C48.8281 9.9375 48.9375 9.92969 49.0312 9.92969H49.1016ZM58.2188 8.875C58.2188 9.01562 58.1562 9.13281 58.0312 9.22656C57.9219 9.32031 57.8672 9.39062 57.8672 9.4375C57.8672 9.53125 57.8828 9.60156 57.9141 9.64844C57.9453 9.67969 57.9609 9.71875 57.9609 9.76562V9.88281C57.8047 10.0391 57.6875 10.2109 57.6094 10.3984C57.5312 10.5703 57.4688 10.7578 57.4219 10.9609C57.375 11.1484 57.3281 11.3438 57.2812 11.5469C57.25 11.75 57.2031 11.9453 57.1406 12.1328C57.0625 12.3203 56.9609 12.4844 56.8359 12.625C56.7109 12.75 56.6094 12.8984 56.5312 13.0703C56.4062 13.3516 56.3125 13.6406 56.25 13.9375C56.1875 14.2344 56.0547 14.5078 55.8516 14.7578V14.875C55.8359 14.9844 55.8672 15.0781 55.9453 15.1562C55.6484 15.5469 55.4141 16.0156 55.2422 16.5625C55.0703 17.0938 54.9297 17.6562 54.8203 18.25C54.7109 18.8281 54.6172 19.4141 54.5391 20.0078C54.4609 20.5859 54.3672 21.1094 54.2578 21.5781C54.3359 21.9219 54.4531 22.25 54.6094 22.5625C54.7812 22.8594 54.9453 23.1719 55.1016 23.5C55.4141 23.5781 55.7109 23.6875 55.9922 23.8281C56.2891 23.9688 56.5 24.1953 56.625 24.5078C56.5938 24.8203 56.4922 25.0625 56.3203 25.2344C56.1484 25.4062 55.9375 25.5859 55.6875 25.7734C55.5156 25.7109 55.375 25.6562 55.2656 25.6094C55.1562 25.5781 54.9922 25.5781 54.7734 25.6094C54.4766 25.375 54.1953 25.1875 53.9297 25.0469C53.6797 24.9062 53.4531 24.6641 53.25 24.3203C53.2188 24.2734 53.1719 24.25 53.1094 24.25H52.8984C52.8203 24.0625 52.7266 23.8672 52.6172 23.6641C52.5078 23.4453 52.3984 23.2266 52.2891 23.0078C52.1797 22.7734 52.0859 22.5469 52.0078 22.3281C51.9297 22.0938 51.8906 21.8828 51.8906 21.6953C51.8906 20.8984 51.9609 20.1094 52.1016 19.3281C52.2578 18.5312 52.3359 17.7266 52.3359 16.9141V16.6797C52.0234 16.7578 51.7109 16.8672 51.3984 17.0078C51.1016 17.1484 50.7969 17.2578 50.4844 17.3359C50.375 17.3672 50.3125 17.4219 50.2969 17.5C50.2812 17.5781 50.2344 17.6406 50.1562 17.6875C50 17.7031 49.8516 17.7188 49.7109 17.7344C49.5703 17.7344 49.4375 17.7344 49.3125 17.7344C49.0469 17.7344 48.7656 17.7266 48.4688 17.7109C48.1875 17.6797 47.9062 17.625 47.625 17.5469C47.3438 17.4688 47.0781 17.3594 46.8281 17.2188C46.5938 17.0781 46.3828 16.8984 46.1953 16.6797C46.1641 16.6953 46.125 16.7109 46.0781 16.7266C46.0312 16.7422 45.9844 16.75 45.9375 16.75C45.8906 16.75 45.8438 16.7422 45.7969 16.7266C45.75 16.7109 45.7109 16.6953 45.6797 16.6797C45.5547 16.5078 45.4531 16.3203 45.375 16.1172L45.1406 15.5078C45.0625 15.3047 44.9766 15.1094 44.8828 14.9219C44.7891 14.7344 44.6641 14.5625 44.5078 14.4062C44.4609 14.125 44.4375 13.8516 44.4375 13.5859C44.4375 13.3047 44.4609 13.0312 44.5078 12.7656C44.5391 12.5 44.5938 12.2344 44.6719 11.9688C44.6094 11.7812 44.5703 11.5859 44.5547 11.3828C44.5234 11.1797 44.5078 10.9766 44.5078 10.7734C44.5078 10.5391 44.5312 10.2969 44.5781 10.0469C44.625 9.79688 44.7031 9.57031 44.8125 9.36719C44.9219 9.14844 45.0781 8.96875 45.2812 8.82812C45.4688 8.6875 45.7031 8.61719 45.9844 8.61719C46.2969 8.61719 46.5859 8.70312 46.8516 8.875C47.1172 9.03125 47.375 9.19531 47.625 9.36719C47.6562 9.55469 47.6797 9.74219 47.6953 9.92969C47.7109 10.1016 47.7188 10.2891 47.7188 10.4922C47.7188 10.8672 47.6953 11.25 47.6484 11.6406C47.6172 12.0156 47.6016 12.3984 47.6016 12.7891C47.6016 13.1953 47.6484 13.5781 47.7422 13.9375C47.8516 14.2812 48.0391 14.6094 48.3047 14.9219H48.3984C48.5234 14.9062 48.6328 14.9297 48.7266 14.9922C48.8203 15.0547 48.9297 15.0859 49.0547 15.0859C49.1641 15.0859 49.25 15.0469 49.3125 14.9688C49.375 14.875 49.4531 14.8281 49.5469 14.8281C49.6406 14.8281 49.7109 14.8438 49.7578 14.875C49.8047 14.9062 49.8438 14.9219 49.875 14.9219C50.0469 14.9219 50.2422 14.8594 50.4609 14.7344C50.6797 14.6094 50.8203 14.4688 50.8828 14.3125C50.9453 14.3594 51.0234 14.3828 51.1172 14.3828C51.2422 14.3828 51.3594 14.3438 51.4688 14.2656C51.5781 14.1875 51.7188 14.1484 51.8906 14.1484C51.9844 14.1484 52.0156 14.0938 51.9844 13.9844C51.9688 13.8594 52 13.7812 52.0781 13.75C52.2656 13.6719 52.4688 13.5625 52.6875 13.4219C52.9219 13.2656 53.1094 13.1719 53.25 13.1406C53.3281 12.9375 53.4219 12.75 53.5312 12.5781C53.6562 12.3906 53.7812 12.2188 53.9062 12.0625C53.9531 11.7031 54.0469 11.3594 54.1875 11.0312C54.3281 10.7031 54.4766 10.375 54.6328 10.0469C54.7891 9.71875 54.9375 9.39062 55.0781 9.0625C55.2188 8.73438 55.3125 8.39062 55.3594 8.03125C55.5312 7.85937 55.6641 7.67187 55.7578 7.46875C55.8672 7.26563 55.9609 7.0625 56.0391 6.85938C56.1953 6.8125 56.3906 6.78906 56.625 6.78906C56.8594 6.77344 57.0625 6.76562 57.2344 6.76562H57.6328C57.6797 6.85938 57.7422 6.94531 57.8203 7.02344L58.0547 7.25781C57.9141 7.47656 57.8438 7.69531 57.8438 7.91406C57.8438 8.08594 57.8828 8.25781 57.9609 8.42969C58.0391 8.58594 58.125 8.73438 58.2188 8.875ZM103.242 30.2969C102.945 30.4531 102.648 30.5938 102.352 30.7188C102.07 30.8438 101.773 30.9609 101.461 31.0703C101.227 30.8984 100.969 30.8203 100.688 30.8359C100.422 30.8516 100.156 30.8203 99.8906 30.7422C99.7656 30.7109 99.6484 30.6641 99.5391 30.6016C99.4453 30.5547 99.3516 30.5078 99.2578 30.4609C98.7578 30.2422 98.25 30.0078 97.7344 29.7578C97.2188 29.5234 96.7578 29.2031 96.3516 28.7969C96.0703 28.7188 95.7891 28.6016 95.5078 28.4453C95.2422 28.2891 95.0234 28.0938 94.8516 27.8594H94.4062C94.2656 27.6562 94.0938 27.4844 93.8906 27.3438C93.6875 27.2188 93.4766 27.0859 93.2578 26.9453C93.0547 26.8203 92.8516 26.6875 92.6484 26.5469C92.4609 26.4062 92.2969 26.2266 92.1562 26.0078C92.125 26.0234 92.0859 26.0312 92.0391 26.0312C91.9609 26.0312 91.8906 26.0156 91.8281 25.9844C91.7812 25.9531 91.7188 25.9375 91.6406 25.9375C91.5469 25.7812 91.4297 25.6406 91.2891 25.5156C91.1484 25.4062 91.0469 25.2656 90.9844 25.0938C90.8906 25.1406 90.7969 25.1641 90.7031 25.1641C90.5156 25.1641 90.3594 25.1016 90.2344 24.9766C90.1094 24.8359 89.9688 24.7344 89.8125 24.6719C89.6406 24.7344 89.4688 24.7734 89.2969 24.7891C89.125 24.8047 88.9609 24.8516 88.8047 24.9297C88.6797 24.9766 88.5859 25.0391 88.5234 25.1172C88.4609 25.2109 88.3828 25.2812 88.2891 25.3281C88.2266 25.3594 88.1562 25.3672 88.0781 25.3516C88 25.3516 87.9297 25.375 87.8672 25.4219C87.8359 25.4375 87.8047 25.4844 87.7734 25.5625C87.7578 25.6406 87.7344 25.6797 87.7031 25.6797C87.6562 25.6797 87.6172 25.6641 87.5859 25.6328C87.5703 25.6172 87.5234 25.6094 87.4453 25.6094C87.3984 25.6094 87.3359 25.6406 87.2578 25.7031C87.1953 25.7656 87.1094 25.8281 87 25.8906C86.9062 25.9688 86.7891 26.0391 86.6484 26.1016C86.5078 26.1641 86.3516 26.1875 86.1797 26.1719C85.6328 26.5938 85.0391 26.875 84.3984 27.0156C84.0859 27.2812 83.7266 27.4922 83.3203 27.6484C82.9141 27.8047 82.5781 28.0391 82.3125 28.3516H82.2422C82.0391 28.3516 81.8672 28.3828 81.7266 28.4453C81.5859 28.5078 81.4375 28.5781 81.2812 28.6562C81.1406 28.7344 80.9844 28.8047 80.8125 28.8672C80.6562 28.9297 80.4531 28.9609 80.2031 28.9609C80.1406 28.9609 80.0625 29.0078 79.9688 29.1016C79.875 29.1953 79.7891 29.2578 79.7109 29.2891C79.4609 29.2891 79.1875 29.3125 78.8906 29.3594C78.5938 29.4062 78.3594 29.5312 78.1875 29.7344C78.0625 29.7031 77.9688 29.6875 77.9062 29.6875C77.6562 29.6875 77.4141 29.7266 77.1797 29.8047C76.9609 29.8828 76.7266 29.9219 76.4766 29.9219C76.3047 29.9219 76.125 29.8828 75.9375 29.8047C75.7188 29.8516 75.4922 29.9375 75.2578 30.0625C74.8828 30.0312 74.5156 29.9844 74.1562 29.9219C73.8125 29.875 73.4531 29.8672 73.0781 29.8984C72.75 29.7578 72.3906 29.6328 72 29.5234C71.625 29.4141 71.25 29.2891 70.875 29.1484C70.5 29.0234 70.1406 28.8672 69.7969 28.6797C69.4688 28.4922 69.1875 28.25 68.9531 27.9531C68.7812 27.7344 68.6562 27.4766 68.5781 27.1797C68.5 26.8828 68.4297 26.5781 68.3672 26.2656C68.3203 25.9531 68.2656 25.6328 68.2031 25.3047C68.1562 24.9922 68.0703 24.6953 67.9453 24.4141C67.9766 24.1328 68.0312 23.8594 68.1094 23.5938C68.1875 23.3125 68.2109 23.0312 68.1797 22.75C68.3516 22.2812 68.5312 21.8203 68.7188 21.3672C68.9219 20.9141 69.0859 20.4453 69.2109 19.9609C69.5859 19.5859 69.8906 19.1641 70.125 18.6953C70.375 18.2109 70.6328 17.7344 70.8984 17.2656C71.1172 17.0781 71.3047 16.8906 71.4609 16.7031C71.6328 16.5 71.75 16.2422 71.8125 15.9297C71.9062 15.9141 71.9688 15.875 72 15.8125C72.0469 15.7344 72.0938 15.6641 72.1406 15.6016C72.1875 15.5234 72.2344 15.4609 72.2812 15.4141C72.3438 15.3672 72.4375 15.3438 72.5625 15.3438C72.7344 14.9688 72.9219 14.5938 73.125 14.2188C73.3438 13.8438 73.6328 13.5469 73.9922 13.3281C74.0859 13.0781 74.2031 12.8516 74.3438 12.6484C74.5 12.4297 74.6641 12.2266 74.8359 12.0391C75.0234 11.8516 75.1953 11.6641 75.3516 11.4766C75.5234 11.2734 75.6641 11.0469 75.7734 10.7969C76.1797 10.4688 76.5469 10.0938 76.875 9.67188C77.2188 9.25 77.6016 8.875 78.0234 8.54688C78.0703 8.53125 78.0938 8.49219 78.0938 8.42969C78.1094 8.35156 78.1172 8.29688 78.1172 8.26562C78.1484 8.23438 78.1797 8.21875 78.2109 8.21875C78.2422 8.21875 78.2578 8.22656 78.2578 8.24219C78.2734 8.24219 78.2969 8.24219 78.3281 8.24219C78.375 8.24219 78.4141 8.22656 78.4453 8.19531C78.4453 8.05469 78.4766 7.94531 78.5391 7.86719C78.6016 7.77344 78.6641 7.6875 78.7266 7.60938C78.8047 7.51562 78.8672 7.42969 78.9141 7.35156C78.9766 7.25781 79.0156 7.14844 79.0312 7.02344C79.4219 6.74219 79.7812 6.4375 80.1094 6.10938C80.4375 5.76563 80.7656 5.42969 81.0938 5.10156C81.4375 4.75781 81.7891 4.4375 82.1484 4.14062C82.5234 3.82812 82.9375 3.57812 83.3906 3.39062V3.22656C83.3906 3.17969 83.3984 3.125 83.4141 3.0625C83.4297 3 83.4531 2.94531 83.4844 2.89844C84.0469 2.86719 84.5 2.64062 84.8438 2.21875C85.125 2.17188 85.4062 2.09375 85.6875 1.98438C85.9844 1.85937 86.2344 1.6875 86.4375 1.46875C86.6875 1.46875 86.9297 1.42969 87.1641 1.35156C87.4141 1.27344 87.6562 1.19531 87.8906 1.11719C88.125 1.02344 88.3594 0.945313 88.5938 0.882812C88.8281 0.804688 89.0781 0.765625 89.3438 0.765625C89.4062 0.765625 89.4609 0.773437 89.5078 0.789062C89.5703 0.804688 89.6406 0.8125 89.7188 0.8125C89.7969 0.8125 89.8672 0.78125 89.9297 0.71875C90.0078 0.65625 90.1094 0.625 90.2344 0.625C90.5156 0.625 90.7969 0.695312 91.0781 0.835938C91.3594 0.960937 91.7188 1.00781 92.1562 0.976562C92.1719 1.28906 92.2422 1.53906 92.3672 1.72656C92.5078 1.91406 92.6797 2.0625 92.8828 2.17188C93.1016 2.26562 93.3359 2.34375 93.5859 2.40625C93.8359 2.45312 94.0859 2.50781 94.3359 2.57031C94.3516 2.92969 94.5 3.17187 94.7812 3.29688C95.0781 3.40625 95.3828 3.46875 95.6953 3.48438C95.8516 3.79688 96.1016 3.95312 96.4453 3.95312C96.5078 3.95312 96.5703 3.95312 96.6328 3.95312C96.7109 3.9375 96.7891 3.92187 96.8672 3.90625C96.8203 3.98438 96.7969 4.04688 96.7969 4.09375C96.7969 4.20312 96.8516 4.28906 96.9609 4.35156C97.0859 4.39844 97.1953 4.42188 97.2891 4.42188L97.3594 4.39844C97.375 4.38281 97.3906 4.375 97.4062 4.375V4.46875C97.4062 4.5625 97.4062 4.625 97.4062 4.65625C97.4219 4.67187 97.4609 4.70312 97.5234 4.75C97.6641 4.85937 97.8125 4.94531 97.9688 5.00781C98.125 5.05469 98.2812 5.10938 98.4375 5.17188C98.5781 5.32812 98.6953 5.47656 98.7891 5.61719C98.8984 5.75781 99.0625 5.83594 99.2812 5.85156C99.4531 6.21094 99.6641 6.53906 99.9141 6.83594C100.18 7.13281 100.453 7.42188 100.734 7.70312V7.79688C100.734 8.07812 100.805 8.28125 100.945 8.40625C101.086 8.51562 101.234 8.67188 101.391 8.875C101.422 9.09375 101.484 9.29688 101.578 9.48438C101.688 9.67188 101.852 9.82812 102.07 9.95312C102.055 10.0312 102.047 10.1016 102.047 10.1641V10.3516C102.047 10.7578 102.078 11.1562 102.141 11.5469C102.203 11.9375 102.234 12.3359 102.234 12.7422C102.234 13.1172 102.188 13.4688 102.094 13.7969C102.016 14.125 101.914 14.4531 101.789 14.7812C101.664 15.0938 101.531 15.4062 101.391 15.7188C101.25 16.0312 101.117 16.3594 100.992 16.7031C100.883 16.7344 100.797 16.7891 100.734 16.8672L100.547 17.0781C100.484 17.1406 100.414 17.2031 100.336 17.2656C100.258 17.3125 100.164 17.3438 100.055 17.3594C100.023 17.4531 99.9766 17.5312 99.9141 17.5938C99.8672 17.6562 99.8594 17.75 99.8906 17.875C99.4375 18.1875 99.0156 18.5234 98.625 18.8828C98.2344 19.2422 97.8359 19.6016 97.4297 19.9609C97.0234 20.1328 96.6328 20.3359 96.2578 20.5703C95.8984 20.7891 95.5391 21.0234 95.1797 21.2734L94.1016 22C93.7422 22.2344 93.375 22.4531 93 22.6562C93 22.7656 92.9766 22.8438 92.9297 22.8906C92.8984 22.9375 92.8672 23 92.8359 23.0781C93.0391 23.2656 93.2266 23.4609 93.3984 23.6641C93.5859 23.8516 93.7734 24.0234 93.9609 24.1797C94.1641 24.3359 94.375 24.4766 94.5938 24.6016C94.8281 24.7109 95.1016 24.7891 95.4141 24.8359C95.5547 25.1172 95.7344 25.3438 95.9531 25.5156C96.1875 25.6875 96.4297 25.8438 96.6797 25.9844C96.9453 26.1406 97.2031 26.2969 97.4531 26.4531C97.7031 26.6094 97.9219 26.7969 98.1094 27.0156L98.1562 27.0391C98.2188 27.0391 98.2656 27.0156 98.2969 26.9688C98.3281 26.9375 98.375 26.9219 98.4375 26.9219C98.4531 26.9219 98.4688 26.9219 98.4844 26.9219C98.5 26.9375 98.5156 26.9453 98.5312 26.9453C98.8281 27.2734 99.1406 27.5391 99.4688 27.7422C99.8125 27.9609 100.195 28.1094 100.617 28.1875C100.68 28.3438 100.758 28.4609 100.852 28.5391C100.945 28.6172 101.039 28.6719 101.133 28.7031C101.242 28.75 101.352 28.7891 101.461 28.8203C101.586 28.8516 101.711 28.8984 101.836 28.9609C101.961 28.9453 102.047 28.8984 102.094 28.8203C102.156 28.7578 102.234 28.6953 102.328 28.6328C102.562 28.8672 102.758 29.1172 102.914 29.3828C103.07 29.6641 103.18 29.9688 103.242 30.2969ZM100.547 12.1562C100.547 11.9375 100.523 11.7266 100.477 11.5234C100.43 11.3203 100.422 11.1094 100.453 10.8906C100.375 10.8281 100.32 10.7422 100.289 10.6328L100.195 10.2812C100.164 10.1562 100.125 10.0469 100.078 9.95312C100.047 9.84375 99.9844 9.76562 99.8906 9.71875C99.9062 9.67188 99.9141 9.59375 99.9141 9.48438C99.9141 9.34375 99.875 9.21875 99.7969 9.10938C99.7344 9 99.6562 8.89062 99.5625 8.78125C99.4844 8.65625 99.4141 8.53906 99.3516 8.42969C99.2891 8.30469 99.2656 8.17188 99.2812 8.03125C98.9531 7.65625 98.6172 7.28906 98.2734 6.92969C97.9453 6.55469 97.5547 6.25 97.1016 6.01562C97.0703 5.9375 97.0469 5.86719 97.0312 5.80469C97.0156 5.74219 96.9844 5.67188 96.9375 5.59375H96.4219C96.3438 5.45312 96.2266 5.35156 96.0703 5.28906C95.9141 5.21094 95.75 5.14844 95.5781 5.10156C95.4062 5.03906 95.2422 4.97656 95.0859 4.91406C94.9453 4.83594 94.8359 4.72656 94.7578 4.58594H94.5469C94.1094 4.58594 93.6875 4.51562 93.2812 4.375C92.8906 4.21875 92.4844 4.09375 92.0625 4C91.9844 4.07813 91.8906 4.14062 91.7812 4.1875C91.6719 4.21875 91.5703 4.26563 91.4766 4.32812C91.2891 4.15625 91.0703 4.03906 90.8203 3.97656C90.5703 3.91406 90.3281 3.88281 90.0938 3.88281C89.625 3.88281 89.1953 3.97656 88.8047 4.16406C88.7266 4.13281 88.6875 4.09375 88.6875 4.04688C88.6875 4 88.6484 3.97656 88.5703 3.97656C88.5547 3.99219 88.5391 4 88.5234 4C88.2734 4.0625 88.0391 4.15625 87.8203 4.28125C87.6016 4.40625 87.4766 4.61719 87.4453 4.91406C87.5391 5.32031 87.7188 5.67969 87.9844 5.99219C88.25 6.28906 88.4609 6.63281 88.6172 7.02344C88.8203 7.08594 88.9766 7.1875 89.0859 7.32812C89.2109 7.46875 89.3125 7.63281 89.3906 7.82031C89.4688 7.99219 89.5312 8.17969 89.5781 8.38281C89.625 8.58594 89.6719 8.77344 89.7188 8.94531C89.6094 8.92969 89.5547 8.96875 89.5547 9.0625C89.5703 9.14062 89.5391 9.1875 89.4609 9.20312C88.9766 9.01562 88.5156 8.79688 88.0781 8.54688C87.6562 8.28125 87.2266 8.02344 86.7891 7.77344C86.7422 7.61719 86.6641 7.49219 86.5547 7.39844C86.4609 7.30469 86.3516 7.21875 86.2266 7.14062C86.1172 7.04688 86.0156 6.95312 85.9219 6.85938C85.8438 6.75 85.7969 6.60156 85.7812 6.41406H85.2422C85.2109 6.19531 85.125 6.02344 84.9844 5.89844C84.8438 5.77344 84.6797 5.64844 84.4922 5.52344C83.7109 6.11719 82.9375 6.73437 82.1719 7.375C81.4219 8 80.7656 8.72656 80.2031 9.55469H80.1094C80 9.55469 79.8984 9.57812 79.8047 9.625C79.8047 9.76562 79.75 9.86719 79.6406 9.92969C79.5469 9.97656 79.5078 10.0703 79.5234 10.2109C79.2578 10.3047 79.0391 10.4531 78.8672 10.6562C78.7109 10.8438 78.5625 11.0469 78.4219 11.2656C78.2812 11.4688 78.125 11.6719 77.9531 11.875C77.7969 12.0625 77.5938 12.2031 77.3438 12.2969C77.2188 12.5781 77.0625 12.8359 76.875 13.0703C76.6875 13.3047 76.4922 13.5312 76.2891 13.75C76.1016 13.9688 75.9141 14.2031 75.7266 14.4531C75.5547 14.6875 75.4219 14.9531 75.3281 15.25C75.3125 15.25 75.2969 15.25 75.2812 15.25C75.2656 15.2344 75.25 15.2266 75.2344 15.2266C75.1562 15.2266 75.1016 15.25 75.0703 15.2969C75.0391 15.3438 74.9922 15.3828 74.9297 15.4141C74.7578 15.7891 74.5547 16.1406 74.3203 16.4688C74.1016 16.7812 73.8672 17.1016 73.6172 17.4297C73.3828 17.7422 73.1562 18.0625 72.9375 18.3906C72.7188 18.7188 72.5391 19.0703 72.3984 19.4453C72.0859 19.7891 71.8281 20.1484 71.625 20.5234C71.4219 20.8828 71.2891 21.2891 71.2266 21.7422C71.1016 21.8516 71.0078 22.0078 70.9453 22.2109C70.8984 22.3984 70.8516 22.5781 70.8047 22.75C70.6328 22.75 70.5156 22.7734 70.4531 22.8203C70.5 23.1016 70.5391 23.4062 70.5703 23.7344C70.6016 24.0469 70.6484 24.3594 70.7109 24.6719C70.7734 24.9844 70.8594 25.2812 70.9688 25.5625C71.0938 25.8594 71.2578 26.1172 71.4609 26.3359C71.7266 26.4297 72 26.5234 72.2812 26.6172C72.5625 26.7266 72.7969 26.8906 72.9844 27.1094H73.1719C73.3438 27.1094 73.5078 27.1328 73.6641 27.1797C73.8203 27.2266 73.9609 27.3125 74.0859 27.4375C74.1641 27.4531 74.2422 27.4609 74.3203 27.4609H74.5781C74.9688 27.4609 75.3516 27.4297 75.7266 27.3672C76.1172 27.3203 76.5078 27.2969 76.8984 27.2969C76.9922 27.2969 77.0781 27.2969 77.1562 27.2969C77.25 27.3125 77.3438 27.3281 77.4375 27.3438C77.5312 27.3125 77.6406 27.2578 77.7656 27.1797C77.9062 27.1016 78.0234 27.0469 78.1172 27.0156C78.3047 26.9844 78.4922 26.9531 78.6797 26.9219C78.8828 26.9062 79.0859 26.875 79.2891 26.8281C79.6484 26.7344 80 26.6094 80.3438 26.4531C80.6875 26.2969 81.0312 26.1484 81.375 26.0078H81.8203C82.3203 25.7891 82.8281 25.5781 83.3438 25.375C83.8594 25.1719 84.375 24.9609 84.8906 24.7422C85.4062 24.5234 85.9062 24.2891 86.3906 24.0391C86.875 23.7734 87.3438 23.4766 87.7969 23.1484C87.5938 23.0703 87.4297 22.9766 87.3047 22.8672L86.9531 22.5156C86.8438 22.3906 86.7188 22.2812 86.5781 22.1875C86.4375 22.0938 86.25 22.0234 86.0156 21.9766C85.8281 21.6328 85.5469 21.3359 85.1719 21.0859C84.8125 20.8359 84.4453 20.5938 84.0703 20.3594C83.7109 20.1094 83.3906 19.8359 83.1094 19.5391C82.8438 19.2266 82.7109 18.8438 82.7109 18.3906C82.7109 18.2188 82.7266 18.0625 82.7578 17.9219C82.8047 17.7656 82.8516 17.6016 82.8984 17.4297C83.0703 17.3984 83.2109 17.3203 83.3203 17.1953C83.4297 17.0703 83.5703 16.9844 83.7422 16.9375C83.8672 17.0469 84.0391 17.0938 84.2578 17.0781C84.4766 17.0625 84.6719 17.0703 84.8438 17.1016C85.0625 17.3828 85.3047 17.6406 85.5703 17.875C85.8359 18.0938 86.1094 18.3125 86.3906 18.5312C86.6719 18.7344 86.9453 18.9453 87.2109 19.1641C87.4766 19.3828 87.7266 19.625 87.9609 19.8906C88.1953 19.9219 88.4062 20 88.5938 20.125C88.7969 20.2344 88.9453 20.4062 89.0391 20.6406H89.1328C89.2422 20.6406 89.3125 20.6797 89.3438 20.7578C89.375 20.8203 89.4688 20.8359 89.625 20.8047C89.6094 20.8359 89.6016 20.8672 89.6016 20.8984C89.6016 21.0078 89.6406 21.0859 89.7188 21.1328C89.7969 21.1641 89.8516 21.2188 89.8828 21.2969H89.9766C90.1953 21.2969 90.3516 21.3594 90.4453 21.4844C90.5547 21.6094 90.7031 21.6953 90.8906 21.7422C91.2812 21.5234 91.6562 21.2891 92.0156 21.0391C92.375 20.7734 92.7812 20.5781 93.2344 20.4531C93.2969 20.3594 93.3594 20.2812 93.4219 20.2188C93.5 20.1406 93.5781 20.0547 93.6562 19.9609H93.75C93.875 19.9766 93.9688 19.9453 94.0312 19.8672C94.0938 19.7891 94.1641 19.7109 94.2422 19.6328C94.5391 19.5547 94.7969 19.4375 95.0156 19.2812C95.2344 19.1094 95.4453 18.9375 95.6484 18.7656C95.8516 18.5781 96.0625 18.4141 96.2812 18.2734C96.5156 18.1172 96.7891 18.0078 97.1016 17.9453C97.1641 17.8516 97.2422 17.75 97.3359 17.6406C97.4297 17.5156 97.5312 17.3984 97.6406 17.2891C97.75 17.1797 97.8672 17.0938 97.9922 17.0312C98.1172 16.9688 98.2422 16.9375 98.3672 16.9375C98.5391 16.625 98.7266 16.3359 98.9297 16.0703C99.1328 15.7891 99.3281 15.5078 99.5156 15.2266C99.7031 14.9453 99.875 14.6562 100.031 14.3594C100.188 14.0469 100.305 13.7031 100.383 13.3281C100.367 13.2656 100.352 13.2109 100.336 13.1641C100.336 13.1172 100.336 13.0703 100.336 13.0234C100.336 12.8984 100.352 12.7656 100.383 12.625C100.414 12.4688 100.469 12.3359 100.547 12.2266V12.1562ZM94.6406 2.875C94.6406 2.89062 94.6328 2.90625 94.6172 2.92188L94.5703 2.82812C94.5703 2.76563 94.5859 2.73438 94.6172 2.73438C94.6328 2.76563 94.6406 2.8125 94.6406 2.875ZM118.383 21.2031C118.32 21.4375 118.219 21.6328 118.078 21.7891C117.938 21.9453 117.773 22.0859 117.586 22.2109C117.414 22.3359 117.227 22.4531 117.023 22.5625C116.82 22.6562 116.625 22.7656 116.438 22.8906H116.133C115.477 22.8906 114.969 22.7344 114.609 22.4219C114.266 22.0938 114 21.6953 113.812 21.2266C113.625 20.7422 113.484 20.2266 113.391 19.6797C113.312 19.1328 113.211 18.6328 113.086 18.1797C112.898 18.3359 112.742 18.5234 112.617 18.7422C112.492 18.9453 112.359 19.1484 112.219 19.3516C112.094 19.5547 111.945 19.7422 111.773 19.9141C111.617 20.0859 111.406 20.2031 111.141 20.2656C111.094 20.375 111.039 20.4844 110.977 20.5938C110.93 20.7031 110.898 20.8203 110.883 20.9453C110.539 21.1328 110.227 21.3516 109.945 21.6016C109.664 21.8516 109.383 22.1094 109.102 22.375C108.82 22.6406 108.531 22.8984 108.234 23.1484C107.953 23.3828 107.633 23.5781 107.273 23.7344C107.258 23.7188 107.227 23.7109 107.18 23.7109C106.992 23.7109 106.82 23.7578 106.664 23.8516C106.508 23.9297 106.336 23.9688 106.148 23.9688C106.023 23.9688 105.906 23.9453 105.797 23.8984C105.703 23.8516 105.602 23.7969 105.492 23.7344C105.398 23.6719 105.297 23.625 105.188 23.5938C105.078 23.5625 104.961 23.5547 104.836 23.5703C104.68 23.2891 104.469 23.0312 104.203 22.7969C103.953 22.5469 103.797 22.2656 103.734 21.9531C103.703 21.8125 103.68 21.6719 103.664 21.5312C103.664 21.375 103.648 21.2188 103.617 21.0625C103.57 20.8281 103.508 20.5938 103.43 20.3594C103.352 20.1094 103.289 19.8594 103.242 19.6094C103.32 19.1875 103.398 18.7266 103.477 18.2266C103.539 17.7109 103.617 17.2031 103.711 16.7031C103.82 16.1875 103.961 15.7031 104.133 15.25C104.32 14.7812 104.555 14.3828 104.836 14.0547L104.812 13.8906C104.812 13.6406 104.859 13.4062 104.953 13.1875C105.047 12.9688 105.148 12.7578 105.258 12.5547C105.367 12.3516 105.461 12.1484 105.539 11.9453C105.617 11.7422 105.633 11.5156 105.586 11.2656C105.773 11.1719 105.969 11.0938 106.172 11.0312C106.375 10.9688 106.586 10.9375 106.805 10.9375C107.008 10.9375 107.195 10.9688 107.367 11.0312C107.336 11.1562 107.391 11.2344 107.531 11.2656V11.3359C107.531 11.6641 107.492 11.9844 107.414 12.2969C107.336 12.6094 107.242 12.9219 107.133 13.2344C107.023 13.5312 106.914 13.8359 106.805 14.1484C106.711 14.4453 106.641 14.75 106.594 15.0625C106.531 15.0781 106.484 15.1094 106.453 15.1562C106.438 15.2031 106.422 15.25 106.406 15.2969C106.391 15.3438 106.367 15.3828 106.336 15.4141C106.305 15.4453 106.258 15.4609 106.195 15.4609C106.102 16.0078 106 16.5547 105.891 17.1016C105.797 17.6328 105.75 18.1719 105.75 18.7188C105.75 19.0469 105.781 19.3828 105.844 19.7266C105.906 20.0703 106.023 20.3984 106.195 20.7109L106.289 20.6875C106.461 20.6875 106.594 20.7266 106.688 20.8047C106.797 20.8828 106.938 20.9609 107.109 21.0391C107.234 21.0078 107.352 20.9688 107.461 20.9219C107.57 20.8594 107.617 20.7578 107.602 20.6172C107.805 20.6016 107.977 20.5547 108.117 20.4766C108.258 20.3828 108.383 20.2812 108.492 20.1719L108.844 19.8438C108.969 19.7344 109.117 19.6562 109.289 19.6094C109.289 19.5156 109.312 19.4453 109.359 19.3984L109.5 19.2578C109.547 19.2109 109.578 19.1641 109.594 19.1172C109.625 19.0547 109.633 18.9688 109.617 18.8594C109.805 18.8438 109.945 18.7969 110.039 18.7188C110.148 18.6406 110.242 18.5547 110.32 18.4609C110.414 18.3516 110.5 18.2422 110.578 18.1328C110.656 18.0234 110.758 17.9297 110.883 17.8516C110.992 17.6172 111.141 17.3047 111.328 16.9141C111.531 16.5234 111.727 16.1172 111.914 15.6953C112.117 15.2734 112.289 14.875 112.43 14.5C112.586 14.1094 112.664 13.8125 112.664 13.6094C112.664 13.5312 112.641 13.4609 112.594 13.3984C112.562 13.3359 112.555 13.2656 112.57 13.1875V13.1172C112.695 12.9609 112.805 12.7891 112.898 12.6016C113.008 12.4141 113.117 12.2344 113.227 12.0625C113.352 11.8906 113.484 11.7344 113.625 11.5938C113.766 11.4531 113.945 11.3438 114.164 11.2656C114.414 11.3438 114.664 11.3984 114.914 11.4297C115.18 11.4609 115.43 11.5234 115.664 11.6172C115.68 12.0078 115.719 12.4609 115.781 12.9766C115.844 13.4922 115.953 13.9297 116.109 14.2891C116.109 14.4922 116.102 14.6875 116.086 14.875C116.086 15.0625 116.086 15.25 116.086 15.4375C116.086 15.75 116.094 16.0703 116.109 16.3984C116.141 16.7266 116.195 17.0312 116.273 17.3125C116.164 17.5469 116.109 17.7969 116.109 18.0625C116.109 18.4219 116.164 18.7656 116.273 19.0938C116.383 19.4062 116.461 19.7422 116.508 20.1016C116.711 20.3828 116.977 20.5234 117.305 20.5234C117.383 20.5234 117.445 20.5156 117.492 20.5C117.555 20.4844 117.617 20.4609 117.68 20.4297C117.805 20.5703 117.914 20.7109 118.008 20.8516C118.117 20.9766 118.242 21.0938 118.383 21.2031ZM133.992 10.0938V10.1875C133.883 10.2188 133.828 10.2969 133.828 10.4219C133.656 10.5 133.477 10.5625 133.289 10.6094C133.102 10.6406 132.922 10.6953 132.75 10.7734C132.578 10.7578 132.398 10.75 132.211 10.75C132.039 10.7344 131.867 10.7266 131.695 10.7266C131.227 10.7266 130.758 10.7422 130.289 10.7734C129.82 10.8047 129.352 10.8047 128.883 10.7734C128.664 10.8984 128.422 11 128.156 11.0781C127.906 11.1406 127.664 11.1719 127.43 11.1719C127.242 11.1719 127.078 11.1484 126.938 11.1016C126.562 11.2891 126.148 11.4453 125.695 11.5703C125.258 11.6953 124.812 11.8203 124.359 11.9453C123.906 12.0547 123.469 12.1875 123.047 12.3438C122.641 12.4844 122.281 12.6875 121.969 12.9531C121.938 13.1719 121.914 13.3906 121.898 13.6094C121.883 13.8125 121.875 14.0156 121.875 14.2188C121.875 14.4375 121.883 14.6406 121.898 14.8281C121.93 15.0156 121.984 15.2031 122.062 15.3906C122.141 15.4219 122.227 15.4453 122.32 15.4609C122.43 15.4766 122.523 15.4844 122.602 15.4844C122.68 15.4844 122.758 15.4766 122.836 15.4609C122.914 15.4297 122.969 15.375 123 15.2969C123.234 15.2656 123.469 15.2578 123.703 15.2734C123.938 15.2734 124.172 15.2734 124.406 15.2734C124.641 15.2734 124.867 15.2656 125.086 15.25C125.32 15.2344 125.547 15.1953 125.766 15.1328C126.016 15.0703 126.258 15.0312 126.492 15.0156C126.742 15 126.984 14.9844 127.219 14.9688C127.453 14.9531 127.695 14.9297 127.945 14.8984C128.195 14.8516 128.453 14.7656 128.719 14.6406C128.922 14.7188 129.125 14.7578 129.328 14.7578C129.547 14.7578 129.758 14.7734 129.961 14.8047C130.07 14.8828 130.156 14.9688 130.219 15.0625C130.297 15.1562 130.336 15.2656 130.336 15.3906C130.336 15.6094 130.258 15.8281 130.102 16.0469C129.945 16.2656 129.82 16.4688 129.727 16.6562H129.469C129.094 16.6562 128.727 16.7109 128.367 16.8203C128.023 16.9141 127.672 17.0312 127.312 17.1719C126.969 17.2969 126.617 17.4141 126.258 17.5234C125.914 17.6172 125.555 17.6641 125.18 17.6641C125.117 17.6641 125.078 17.7031 125.062 17.7812C125.062 17.8438 125.047 17.8906 125.016 17.9219C124.938 17.9062 124.82 17.8984 124.664 17.8984C124.305 17.8984 123.961 17.9375 123.633 18.0156C123.305 18.0938 122.969 18.1328 122.625 18.1328C122.531 18.1328 122.438 18.1328 122.344 18.1328C122.25 18.1172 122.156 18.1016 122.062 18.0859C121.984 18.2109 121.883 18.2969 121.758 18.3438C121.633 18.375 121.516 18.4375 121.406 18.5312C121.359 18.6719 121.328 18.8438 121.312 19.0469C121.312 19.25 121.305 19.4609 121.289 19.6797C121.289 19.8828 121.273 20.0781 121.242 20.2656C121.211 20.4531 121.148 20.6016 121.055 20.7109C121.07 20.7891 121.133 20.8203 121.242 20.8047C121.352 20.7734 121.406 20.8203 121.406 20.9453C121.406 21.0859 121.391 21.2344 121.359 21.3906C121.328 21.5469 121.312 21.7031 121.312 21.8594C121.312 22.1562 121.344 22.4844 121.406 22.8438C121.484 23.1875 121.594 23.5078 121.734 23.8047C121.891 24.1016 122.094 24.3516 122.344 24.5547C122.594 24.7422 122.906 24.8359 123.281 24.8359C123.531 24.8359 123.766 24.7891 123.984 24.6953C124.203 24.6016 124.383 24.4453 124.523 24.2266L124.641 24.2031C124.703 24.2031 124.758 24.2109 124.805 24.2266C124.867 24.2422 124.93 24.25 124.992 24.25C125.086 24.25 125.203 24.1953 125.344 24.0859C125.5 23.9609 125.664 23.8203 125.836 23.6641C126.023 23.5078 126.211 23.3594 126.398 23.2188C126.586 23.0625 126.766 22.9531 126.938 22.8906C127.047 22.6719 127.148 22.4531 127.242 22.2344C127.352 22.0156 127.508 21.8438 127.711 21.7188V21.0391C127.867 20.8672 128.031 20.7109 128.203 20.5703C128.391 20.4297 128.531 20.25 128.625 20.0312C128.703 20.0625 128.773 20.0859 128.836 20.1016C128.914 20.1172 128.992 20.125 129.07 20.125C129.148 20.125 129.227 20.1172 129.305 20.1016C129.398 20.0859 129.484 20.0625 129.562 20.0312C129.688 20.2031 129.781 20.3984 129.844 20.6172C129.922 20.8203 130.016 21.0156 130.125 21.2031C129.984 21.4844 129.82 21.8203 129.633 22.2109C129.445 22.6016 129.242 22.9922 129.023 23.3828C128.805 23.7734 128.57 24.1484 128.32 24.5078C128.086 24.8516 127.852 25.1172 127.617 25.3047C127.57 25.3516 127.469 25.4062 127.312 25.4688C127.141 25.5938 126.984 25.7109 126.844 25.8203C126.703 25.9453 126.57 26.0859 126.445 26.2422C125.992 26.3828 125.555 26.5703 125.133 26.8047C124.727 27.0391 124.32 27.2656 123.914 27.4844C123.727 27.4375 123.523 27.4141 123.305 27.4141C123.117 27.4141 122.93 27.4219 122.742 27.4375C122.555 27.4688 122.352 27.4844 122.133 27.4844C122.07 27.4062 121.977 27.3516 121.852 27.3203C121.742 27.3047 121.703 27.2266 121.734 27.0859C121.203 27.0547 120.773 26.9062 120.445 26.6406C120.117 26.3906 119.836 26.0781 119.602 25.7031C119.383 25.3281 119.203 24.9219 119.062 24.4844C118.922 24.0469 118.773 23.625 118.617 23.2188V23.1484C118.617 23.0703 118.648 23.0234 118.711 23.0078C118.773 22.9922 118.805 22.9453 118.805 22.8672C118.805 22.8359 118.797 22.8125 118.781 22.7969C118.734 22.625 118.695 22.4766 118.664 22.3516C118.633 22.2266 118.617 22.0781 118.617 21.9062C118.617 21.6562 118.633 21.4141 118.664 21.1797C118.695 20.9297 118.711 20.6797 118.711 20.4297C118.711 20.1797 118.68 19.9609 118.617 19.7734C118.68 19.6953 118.734 19.5938 118.781 19.4688C118.812 19.3281 118.836 19.1875 118.852 19.0469C118.867 18.9062 118.875 18.7656 118.875 18.625C118.891 18.4844 118.914 18.3594 118.945 18.25C118.883 18.0781 118.828 17.9297 118.781 17.8047C118.734 17.6641 118.711 17.5 118.711 17.3125V17.1484C118.867 16.8828 119 16.6094 119.109 16.3281C119.219 16.0469 119.336 15.7578 119.461 15.4609V15.3906C119.461 14.9375 119.445 14.4844 119.414 14.0312C119.383 13.5781 119.367 13.125 119.367 12.6719V12.2266C119.367 12.0703 119.375 11.9219 119.391 11.7812C119.516 11.7188 119.609 11.6328 119.672 11.5234C119.734 11.4141 119.828 11.3281 119.953 11.2656H120.727L120.867 11.0312C120.914 10.9531 120.945 10.8672 120.961 10.7734C121.133 10.7266 121.297 10.6641 121.453 10.5859C121.625 10.4922 121.781 10.3984 121.922 10.3047C122.141 10.1797 122.336 10.0703 122.508 9.97656C122.695 9.86719 122.875 9.78125 123.047 9.71875C123.234 9.64062 123.43 9.57812 123.633 9.53125C123.836 9.48438 124.07 9.44531 124.336 9.41406C124.461 9.41406 124.539 9.39062 124.57 9.34375C124.617 9.29688 124.68 9.24219 124.758 9.17969C124.945 9.21094 125.133 9.24219 125.32 9.27344C125.508 9.28906 125.695 9.29688 125.883 9.29688C126.258 9.29688 126.609 9.22656 126.938 9.08594C127.406 9.08594 127.867 9.07812 128.32 9.0625C128.789 9.04688 129.258 9.03906 129.727 9.03906C130.133 9.03906 130.539 9.05469 130.945 9.08594C131.352 9.11719 131.75 9.17188 132.141 9.25C132.281 9.20312 132.438 9.17969 132.609 9.17969C132.797 9.17969 132.984 9.20312 133.172 9.25C133.375 9.28125 133.57 9.28125 133.758 9.25C133.773 9.42188 133.812 9.57031 133.875 9.69531C133.953 9.80469 133.992 9.9375 133.992 10.0938ZM145.266 22.0469C145.266 22.3125 145.195 22.5469 145.055 22.75C144.93 22.9375 144.883 23.1719 144.914 23.4531C144.695 23.5781 144.516 23.7422 144.375 23.9453C144.234 24.1484 144.102 24.3594 143.977 24.5781C142.945 25.25 141.836 25.7891 140.648 26.1953C139.477 26.6172 138.266 26.8281 137.016 26.8281C136.938 26.8281 136.867 26.7891 136.805 26.7109C136.742 26.6484 136.68 26.5781 136.617 26.5C136.555 26.4219 136.484 26.3438 136.406 26.2656C136.344 26.2031 136.266 26.1719 136.172 26.1719C136.062 26.1719 135.977 26.1953 135.914 26.2422C135.914 26.2109 135.914 26.1797 135.914 26.1484C135.93 26.1328 135.938 26.1094 135.938 26.0781C135.938 25.8906 135.914 25.6953 135.867 25.4922C135.82 25.3047 135.797 25.1172 135.797 24.9297C135.797 24.7109 135.836 24.5312 135.914 24.3906H136.195C136.352 24.3906 136.5 24.3828 136.641 24.3672C136.797 24.3359 136.961 24.3203 137.133 24.3203C137.305 24.3203 137.461 24.3672 137.602 24.4609C138.461 24.4297 139.273 24.2734 140.039 23.9922C140.82 23.6953 141.609 23.4062 142.406 23.125C142.531 22.9531 142.602 22.7656 142.617 22.5625C142.648 22.3438 142.711 22.1406 142.805 21.9531C142.398 21.6094 141.984 21.3438 141.562 21.1562C141.156 20.9531 140.68 20.8828 140.133 20.9453C139.805 20.7422 139.453 20.625 139.078 20.5938C138.719 20.5625 138.352 20.5156 137.977 20.4531C137.883 20.4375 137.781 20.4219 137.672 20.4062C137.578 20.375 137.477 20.3594 137.367 20.3594C137.289 20.3594 137.211 20.3828 137.133 20.4297C137.07 20.4609 137.055 20.5156 137.086 20.5938C137.008 20.4688 136.898 20.3984 136.758 20.3828C136.633 20.3516 136.523 20.2891 136.43 20.1953C135.93 20.1641 135.492 20.0781 135.117 19.9375C134.742 19.7812 134.328 19.6094 133.875 19.4219C133.75 19.375 133.625 19.3438 133.5 19.3281C133.391 19.2969 133.281 19.25 133.172 19.1875C132.891 19.0469 132.664 18.8594 132.492 18.625C132.32 18.3906 132.188 18.1328 132.094 17.8516C131.984 17.5547 131.906 17.25 131.859 16.9375C131.812 16.625 131.766 16.3359 131.719 16.0703C131.859 15.8203 131.992 15.5625 132.117 15.2969C132.227 15.0312 132.32 14.75 132.398 14.4531C132.492 14.4062 132.586 14.3672 132.68 14.3359C132.773 14.3047 132.875 14.2656 132.984 14.2188C132.969 14.1875 132.961 14.1484 132.961 14.1016C132.961 14.0234 132.984 13.9453 133.031 13.8672C133.094 13.7891 133.109 13.7109 133.078 13.6328C133.422 13.3203 133.75 13 134.062 12.6719C134.391 12.3281 134.672 11.9531 134.906 11.5469C135.141 11.4688 135.328 11.3516 135.469 11.1953C135.609 11.0391 135.75 10.8828 135.891 10.7266C136.031 10.5547 136.188 10.4062 136.359 10.2812C136.531 10.1406 136.75 10.0547 137.016 10.0234C137.078 9.91406 137.164 9.82812 137.273 9.76562C137.383 9.6875 137.492 9.61719 137.602 9.55469C137.711 9.49219 137.812 9.42188 137.906 9.34375C138 9.26562 138.07 9.15625 138.117 9.01562C138.367 9.01562 138.594 8.96875 138.797 8.875C139.016 8.78125 139.227 8.67969 139.43 8.57031C139.633 8.46094 139.836 8.35938 140.039 8.26562C140.258 8.17188 140.492 8.125 140.742 8.125C140.805 8.125 140.867 8.13281 140.93 8.14844C140.992 8.14844 141.062 8.15625 141.141 8.17188C141.25 8.28125 141.32 8.41406 141.352 8.57031C141.398 8.71094 141.43 8.86719 141.445 9.03906C141.461 9.21094 141.469 9.38281 141.469 9.55469C141.484 9.72656 141.516 9.88281 141.562 10.0234C141.422 10.2891 141.266 10.5547 141.094 10.8203C140.938 11.0859 140.727 11.2891 140.461 11.4297H140.414C140.305 11.4453 140.203 11.4219 140.109 11.3594C140.016 11.2969 139.906 11.2656 139.781 11.2656C139.703 11.2656 139.641 11.2891 139.594 11.3359L139.477 11.4531C139.445 11.4844 139.398 11.5156 139.336 11.5469C139.289 11.5781 139.219 11.5781 139.125 11.5469C138.906 11.625 138.82 11.7578 138.867 11.9453C138.57 11.9766 138.32 12.0703 138.117 12.2266C137.914 12.3672 137.727 12.5312 137.555 12.7188C137.383 12.8906 137.211 13.0547 137.039 13.2109C136.867 13.3516 136.664 13.4297 136.43 13.4453C136.164 13.9141 135.836 14.3281 135.445 14.6875C135.07 15.0469 134.758 15.4531 134.508 15.9062C134.555 16.0312 134.586 16.1641 134.602 16.3047C134.617 16.4453 134.641 16.5938 134.672 16.75C134.812 16.9375 134.977 17.1016 135.164 17.2422C135.367 17.3828 135.562 17.5234 135.75 17.6641H135.82C136.133 17.6641 136.422 17.7266 136.688 17.8516C136.953 17.9609 137.234 18.0156 137.531 18.0156C137.688 18.0156 137.82 17.9844 137.93 17.9219C138.336 18.0156 138.734 18.0938 139.125 18.1562C139.531 18.2188 139.938 18.2656 140.344 18.2969C140.547 18.3281 140.75 18.3438 140.953 18.3438C141.172 18.3438 141.375 18.3672 141.562 18.4141C141.734 18.4609 141.906 18.5234 142.078 18.6016C142.25 18.6641 142.422 18.7344 142.594 18.8125C142.953 18.9688 143.289 19.1406 143.602 19.3281C143.93 19.5156 144.219 19.7422 144.469 20.0078C144.719 20.2578 144.914 20.5547 145.055 20.8984C145.195 21.2266 145.266 21.6094 145.266 22.0469ZM165.633 9.92969C165.57 10.1328 165.469 10.3203 165.328 10.4922L164.93 10.9844C164.805 11.1406 164.695 11.3125 164.602 11.5C164.523 11.6719 164.5 11.875 164.531 12.1094C164.5 12.1094 164.461 12.1094 164.414 12.1094C164.367 12.0938 164.328 12.0859 164.297 12.0859C164.047 12.0859 163.852 12.1484 163.711 12.2734C163.586 12.3828 163.414 12.4766 163.195 12.5547C163.164 12.4609 163.125 12.375 163.078 12.2969C163.031 12.2031 162.961 12.1406 162.867 12.1094C162.492 12.1875 162.117 12.25 161.742 12.2969C161.367 12.3281 160.992 12.375 160.617 12.4375C160.445 12.4688 160.273 12.5156 160.102 12.5781C159.93 12.625 159.75 12.6719 159.562 12.7188C159.469 12.75 159.367 12.7656 159.258 12.7656C159.148 12.75 159.039 12.75 158.93 12.7656C158.555 12.7812 158.148 12.8125 157.711 12.8594C157.273 12.8906 156.883 13.0078 156.539 13.2109C156.383 13.1797 156.219 13.1562 156.047 13.1406C155.875 13.125 155.703 13.1172 155.531 13.1172C155.156 13.1172 154.742 13.1562 154.289 13.2344C153.852 13.2969 153.461 13.4297 153.117 13.6328C153.039 13.6016 152.953 13.5781 152.859 13.5625C152.781 13.5469 152.688 13.5391 152.578 13.5391C152.547 13.5391 152.523 13.5469 152.508 13.5625C152.492 13.5625 152.469 13.5625 152.438 13.5625C152.422 13.7031 152.438 13.8438 152.484 13.9844C152.547 14.1094 152.648 14.2109 152.789 14.2891C152.727 14.4609 152.695 14.6484 152.695 14.8516C152.695 15.1172 152.711 15.3828 152.742 15.6484C152.789 15.9141 152.812 16.1797 152.812 16.4453C152.812 16.7422 152.773 16.9766 152.695 17.1484C152.852 17.6172 152.93 18.1172 152.93 18.6484C152.93 18.8359 152.914 19.0234 152.883 19.2109C152.867 19.3828 152.859 19.5703 152.859 19.7734C152.859 19.9453 152.922 20.0859 153.047 20.1953C153.172 20.2891 153.234 20.4219 153.234 20.5938C153.234 20.6562 153.219 20.7188 153.188 20.7812C153.406 20.7344 153.617 20.6719 153.82 20.5938C154.023 20.5 154.234 20.4531 154.453 20.4531C154.578 20.4531 154.695 20.4766 154.805 20.5234C154.93 20.5703 155.039 20.6328 155.133 20.7109C155.117 20.7891 155.102 20.875 155.086 20.9688C155.086 21.0625 155.086 21.1562 155.086 21.25C155.086 21.4219 155.086 21.5859 155.086 21.7422C155.102 21.8828 155.117 22.0391 155.133 22.2109C155.008 22.4297 154.859 22.625 154.688 22.7969C154.531 22.9688 154.422 23.1875 154.359 23.4531C154.125 23.4531 153.914 23.5078 153.727 23.6172C153.555 23.7109 153.391 23.8203 153.234 23.9453C153.078 24.0547 152.922 24.1641 152.766 24.2734C152.609 24.3672 152.438 24.4141 152.25 24.4141C152.016 24.4141 151.852 24.3828 151.758 24.3203C151.664 24.2422 151.594 24.1641 151.547 24.0859C151.5 24.0078 151.453 23.9375 151.406 23.875C151.375 23.8125 151.297 23.7891 151.172 23.8047C151.141 23.6016 151.078 23.4141 150.984 23.2422C150.891 23.0547 150.789 22.875 150.68 22.7031C150.586 22.5312 150.484 22.3594 150.375 22.1875C150.281 22 150.211 21.8125 150.164 21.625C150.07 21.2188 150.031 20.7969 150.047 20.3594C150.062 19.9219 149.992 19.5 149.836 19.0938C149.867 18.875 149.891 18.6562 149.906 18.4375C149.922 18.2031 149.93 17.9766 149.93 17.7578C149.93 17.3203 149.914 16.8906 149.883 16.4688C149.867 16.0312 149.852 15.5859 149.836 15.1328C149.727 14.9922 149.656 14.8359 149.625 14.6641C149.609 14.4766 149.594 14.2969 149.578 14.125C149.531 14.0781 149.477 14.0312 149.414 13.9844C149.367 13.9375 149.336 13.875 149.32 13.7969C149.195 13.7656 149.102 13.75 149.039 13.75C148.82 13.75 148.633 13.8047 148.477 13.9141C148.336 14.0078 148.203 14.0547 148.078 14.0547C147.953 14.0547 147.836 14.0391 147.727 14.0078C147.617 13.9766 147.508 13.9609 147.398 13.9609C147.305 13.9609 147.25 13.9844 147.234 14.0312C147.234 14.0625 147.203 14.0938 147.141 14.125C147.094 14.1562 146.984 14.1875 146.812 14.2188C146.641 14.25 146.445 14.2812 146.227 14.3125C146.023 14.3281 145.82 14.3438 145.617 14.3594C145.43 14.375 145.305 14.3828 145.242 14.3828C144.992 14.3828 144.805 14.3359 144.68 14.2422C144.539 14.1328 144.375 14.0156 144.188 13.8906C144.219 13.7969 144.234 13.7344 144.234 13.7031C144.234 13.5469 144.188 13.4219 144.094 13.3281C144 13.2188 143.953 13.125 143.953 13.0469C143.953 12.875 144.023 12.7422 144.164 12.6484C144.289 12.5547 144.359 12.4062 144.375 12.2031C144.734 12.0469 145.102 11.9297 145.477 11.8516C145.852 11.7734 146.234 11.7109 146.625 11.6641C147.016 11.6172 147.398 11.5625 147.773 11.5C148.164 11.4375 148.547 11.3359 148.922 11.1953C149.031 11.2109 149.133 11.2266 149.227 11.2422C149.336 11.2422 149.445 11.2422 149.555 11.2422C150.023 11.2422 150.484 11.1953 150.938 11.1016C151.406 10.9922 151.883 10.9375 152.367 10.9375C152.492 10.9375 152.617 10.9453 152.742 10.9609C152.867 10.9766 152.992 11 153.117 11.0312C153.742 10.9375 154.359 10.8359 154.969 10.7266C155.594 10.6172 156.234 10.5234 156.891 10.4453C157.203 10.4141 157.508 10.3906 157.805 10.375C158.117 10.3438 158.43 10.3047 158.742 10.2578C158.852 10.2422 158.93 10.2188 158.977 10.1875C159.039 10.1406 159.07 10.0547 159.07 9.92969C159.211 9.99219 159.367 10.0234 159.539 10.0234C159.805 10.0234 160.062 9.97656 160.312 9.88281C160.562 9.78906 160.82 9.74219 161.086 9.74219C161.148 9.74219 161.203 9.75 161.25 9.76562C161.297 9.76562 161.344 9.76562 161.391 9.76562C161.5 9.76562 161.555 9.71875 161.555 9.625C161.57 9.51562 161.648 9.44531 161.789 9.41406C161.898 9.38281 162.055 9.35938 162.258 9.34375C162.461 9.32812 162.672 9.3125 162.891 9.29688C163.125 9.26562 163.336 9.23438 163.523 9.20312C163.727 9.15625 163.875 9.09375 163.969 9.01562L164.133 8.75781C164.414 8.77344 164.617 8.89844 164.742 9.13281C164.883 9.35156 164.961 9.59375 164.977 9.85938C165.039 9.92188 165.125 9.95312 165.234 9.95312C165.359 9.9375 165.469 9.92969 165.562 9.92969H165.633Z" fill="white"/>
</svg>
